<mxfile host="app.diagrams.net" modified="2021-07-07T05:39:12.045Z" agent="5.0 (Windows)" etag="qkx5mXEddqiLC5XmhhYU" version="14.8.4" type="github">
  <diagram id="4bIQ_ZZgOK87OMa4PAmw" name="Page-1">
    <mxGraphModel dx="2607" dy="1440" grid="1" gridSize="10" guides="1" tooltips="1" connect="1" arrows="1" fold="1" page="1" pageScale="1" pageWidth="850" pageHeight="1100" math="0" shadow="0">
      <root>
        <mxCell id="0" />
        <mxCell id="1" parent="0" />
        <mxCell id="22_Gp_ISMEU15hHWN27D-49" style="edgeStyle=orthogonalEdgeStyle;rounded=0;orthogonalLoop=1;jettySize=auto;html=1;exitX=0.5;exitY=1;exitDx=0;exitDy=0;entryX=0.5;entryY=0;entryDx=0;entryDy=0;" edge="1" parent="1" source="22_Gp_ISMEU15hHWN27D-1" target="22_Gp_ISMEU15hHWN27D-2">
          <mxGeometry relative="1" as="geometry" />
        </mxCell>
        <mxCell id="22_Gp_ISMEU15hHWN27D-1" value="Start" style="rounded=0;whiteSpace=wrap;html=1;" vertex="1" parent="1">
          <mxGeometry x="315" y="60" width="120" height="30" as="geometry" />
        </mxCell>
        <mxCell id="22_Gp_ISMEU15hHWN27D-48" style="edgeStyle=orthogonalEdgeStyle;rounded=0;orthogonalLoop=1;jettySize=auto;html=1;exitX=0.5;exitY=1;exitDx=0;exitDy=0;entryX=0.5;entryY=0;entryDx=0;entryDy=0;" edge="1" parent="1" source="22_Gp_ISMEU15hHWN27D-2" target="22_Gp_ISMEU15hHWN27D-3">
          <mxGeometry relative="1" as="geometry" />
        </mxCell>
        <mxCell id="22_Gp_ISMEU15hHWN27D-2" value="import random" style="rounded=0;whiteSpace=wrap;html=1;" vertex="1" parent="1">
          <mxGeometry x="315" y="140" width="120" height="40" as="geometry" />
        </mxCell>
        <mxCell id="22_Gp_ISMEU15hHWN27D-47" style="edgeStyle=orthogonalEdgeStyle;rounded=0;orthogonalLoop=1;jettySize=auto;html=1;exitX=0.5;exitY=1;exitDx=0;exitDy=0;entryX=0.5;entryY=0;entryDx=0;entryDy=0;" edge="1" parent="1" source="22_Gp_ISMEU15hHWN27D-3" target="22_Gp_ISMEU15hHWN27D-4">
          <mxGeometry relative="1" as="geometry" />
        </mxCell>
        <mxCell id="22_Gp_ISMEU15hHWN27D-3" value="&lt;div&gt;sN=random.randint(1,20)&lt;/div&gt;&lt;div&gt;gTaken=1&lt;br&gt;&lt;/div&gt;" style="rounded=0;whiteSpace=wrap;html=1;" vertex="1" parent="1">
          <mxGeometry x="280" y="240" width="190" height="60" as="geometry" />
        </mxCell>
        <mxCell id="22_Gp_ISMEU15hHWN27D-46" style="edgeStyle=orthogonalEdgeStyle;rounded=0;orthogonalLoop=1;jettySize=auto;html=1;exitX=0.5;exitY=1;exitDx=0;exitDy=0;" edge="1" parent="1" source="22_Gp_ISMEU15hHWN27D-4" target="22_Gp_ISMEU15hHWN27D-7">
          <mxGeometry relative="1" as="geometry" />
        </mxCell>
        <mxCell id="22_Gp_ISMEU15hHWN27D-4" value="print(&#39;I am thinking of a number between 1 and 20.&#39;)" style="rounded=0;whiteSpace=wrap;html=1;" vertex="1" parent="1">
          <mxGeometry x="215" y="320" width="320" height="40" as="geometry" />
        </mxCell>
        <mxCell id="22_Gp_ISMEU15hHWN27D-45" style="edgeStyle=orthogonalEdgeStyle;rounded=0;orthogonalLoop=1;jettySize=auto;html=1;exitX=0.5;exitY=1;exitDx=0;exitDy=0;entryX=0.5;entryY=0;entryDx=0;entryDy=0;" edge="1" parent="1" source="22_Gp_ISMEU15hHWN27D-7" target="22_Gp_ISMEU15hHWN27D-9">
          <mxGeometry relative="1" as="geometry" />
        </mxCell>
        <mxCell id="22_Gp_ISMEU15hHWN27D-7" value="gTaken&amp;lt;7" style="rhombus;whiteSpace=wrap;html=1;" vertex="1" parent="1">
          <mxGeometry x="312.5" y="410" width="125" height="50" as="geometry" />
        </mxCell>
        <mxCell id="22_Gp_ISMEU15hHWN27D-32" style="edgeStyle=orthogonalEdgeStyle;rounded=0;orthogonalLoop=1;jettySize=auto;html=1;exitX=0.5;exitY=1;exitDx=0;exitDy=0;entryX=0.5;entryY=0;entryDx=0;entryDy=0;" edge="1" parent="1" source="22_Gp_ISMEU15hHWN27D-9" target="22_Gp_ISMEU15hHWN27D-10">
          <mxGeometry relative="1" as="geometry" />
        </mxCell>
        <mxCell id="22_Gp_ISMEU15hHWN27D-9" value="&lt;div&gt;print(&#39;Take a guess.&#39;)&lt;/div&gt;&lt;div&gt;guess=int(input())&lt;br&gt;&lt;/div&gt;" style="rounded=0;whiteSpace=wrap;html=1;" vertex="1" parent="1">
          <mxGeometry x="297.5" y="490" width="155" height="60" as="geometry" />
        </mxCell>
        <mxCell id="22_Gp_ISMEU15hHWN27D-23" style="edgeStyle=orthogonalEdgeStyle;rounded=0;orthogonalLoop=1;jettySize=auto;html=1;exitX=1;exitY=0.5;exitDx=0;exitDy=0;entryX=0;entryY=0.5;entryDx=0;entryDy=0;" edge="1" parent="1" source="22_Gp_ISMEU15hHWN27D-10" target="22_Gp_ISMEU15hHWN27D-12">
          <mxGeometry relative="1" as="geometry" />
        </mxCell>
        <mxCell id="22_Gp_ISMEU15hHWN27D-25" style="edgeStyle=orthogonalEdgeStyle;rounded=0;orthogonalLoop=1;jettySize=auto;html=1;exitX=0.5;exitY=1;exitDx=0;exitDy=0;" edge="1" parent="1" source="22_Gp_ISMEU15hHWN27D-10" target="22_Gp_ISMEU15hHWN27D-14">
          <mxGeometry relative="1" as="geometry" />
        </mxCell>
        <mxCell id="22_Gp_ISMEU15hHWN27D-10" value="&lt;div&gt;guess&amp;lt;sN&lt;/div&gt;" style="rhombus;whiteSpace=wrap;html=1;" vertex="1" parent="1">
          <mxGeometry x="310" y="580" width="125" height="60" as="geometry" />
        </mxCell>
        <mxCell id="22_Gp_ISMEU15hHWN27D-37" style="edgeStyle=orthogonalEdgeStyle;rounded=0;orthogonalLoop=1;jettySize=auto;html=1;exitX=1;exitY=0.5;exitDx=0;exitDy=0;entryX=0.5;entryY=1;entryDx=0;entryDy=0;" edge="1" parent="1" source="22_Gp_ISMEU15hHWN27D-12" target="22_Gp_ISMEU15hHWN27D-35">
          <mxGeometry relative="1" as="geometry" />
        </mxCell>
        <mxCell id="22_Gp_ISMEU15hHWN27D-12" value="print(&#39;Your guess is too low.&#39;)" style="rounded=0;whiteSpace=wrap;html=1;" vertex="1" parent="1">
          <mxGeometry x="490" y="580" width="180" height="60" as="geometry" />
        </mxCell>
        <mxCell id="22_Gp_ISMEU15hHWN27D-20" style="edgeStyle=orthogonalEdgeStyle;rounded=0;orthogonalLoop=1;jettySize=auto;html=1;exitX=1;exitY=0.5;exitDx=0;exitDy=0;" edge="1" parent="1" source="22_Gp_ISMEU15hHWN27D-14" target="22_Gp_ISMEU15hHWN27D-15">
          <mxGeometry relative="1" as="geometry" />
        </mxCell>
        <mxCell id="22_Gp_ISMEU15hHWN27D-28" style="edgeStyle=orthogonalEdgeStyle;rounded=0;orthogonalLoop=1;jettySize=auto;html=1;exitX=0.5;exitY=1;exitDx=0;exitDy=0;entryX=0.5;entryY=0;entryDx=0;entryDy=0;startArrow=none;" edge="1" parent="1" source="22_Gp_ISMEU15hHWN27D-50" target="22_Gp_ISMEU15hHWN27D-18">
          <mxGeometry relative="1" as="geometry" />
        </mxCell>
        <mxCell id="22_Gp_ISMEU15hHWN27D-14" value="&lt;div&gt;guess&amp;gt;sN&lt;/div&gt;" style="rhombus;whiteSpace=wrap;html=1;" vertex="1" parent="1">
          <mxGeometry x="310" y="690" width="125" height="60" as="geometry" />
        </mxCell>
        <mxCell id="22_Gp_ISMEU15hHWN27D-38" style="edgeStyle=orthogonalEdgeStyle;rounded=0;orthogonalLoop=1;jettySize=auto;html=1;exitX=1;exitY=0.5;exitDx=0;exitDy=0;entryX=0.5;entryY=1;entryDx=0;entryDy=0;" edge="1" parent="1" source="22_Gp_ISMEU15hHWN27D-15" target="22_Gp_ISMEU15hHWN27D-35">
          <mxGeometry relative="1" as="geometry">
            <mxPoint x="790" y="640" as="targetPoint" />
          </mxGeometry>
        </mxCell>
        <mxCell id="22_Gp_ISMEU15hHWN27D-15" value="print(&#39;Your guess is too high.&#39;)" style="rounded=0;whiteSpace=wrap;html=1;" vertex="1" parent="1">
          <mxGeometry x="490" y="690" width="180" height="60" as="geometry" />
        </mxCell>
        <mxCell id="22_Gp_ISMEU15hHWN27D-18" value="End" style="rounded=0;whiteSpace=wrap;html=1;" vertex="1" parent="1">
          <mxGeometry x="312.5" y="920" width="120" height="60" as="geometry" />
        </mxCell>
        <mxCell id="22_Gp_ISMEU15hHWN27D-21" value="T" style="text;html=1;strokeColor=none;fillColor=none;align=center;verticalAlign=middle;whiteSpace=wrap;rounded=0;" vertex="1" parent="1">
          <mxGeometry x="435" y="700" width="40" height="20" as="geometry" />
        </mxCell>
        <mxCell id="22_Gp_ISMEU15hHWN27D-22" value="T" style="text;html=1;strokeColor=none;fillColor=none;align=center;verticalAlign=middle;whiteSpace=wrap;rounded=0;" vertex="1" parent="1">
          <mxGeometry x="437.5" y="590" width="40" height="20" as="geometry" />
        </mxCell>
        <mxCell id="22_Gp_ISMEU15hHWN27D-26" value="F" style="text;html=1;strokeColor=none;fillColor=none;align=center;verticalAlign=middle;whiteSpace=wrap;rounded=0;" vertex="1" parent="1">
          <mxGeometry x="360" y="650" width="40" height="20" as="geometry" />
        </mxCell>
        <mxCell id="22_Gp_ISMEU15hHWN27D-29" value="F" style="text;html=1;strokeColor=none;fillColor=none;align=center;verticalAlign=middle;whiteSpace=wrap;rounded=0;" vertex="1" parent="1">
          <mxGeometry x="360" y="770" width="40" height="20" as="geometry" />
        </mxCell>
        <mxCell id="22_Gp_ISMEU15hHWN27D-40" style="edgeStyle=orthogonalEdgeStyle;rounded=0;orthogonalLoop=1;jettySize=auto;html=1;exitX=0;exitY=0.5;exitDx=0;exitDy=0;entryX=1;entryY=0.5;entryDx=0;entryDy=0;" edge="1" parent="1" source="22_Gp_ISMEU15hHWN27D-30" target="22_Gp_ISMEU15hHWN27D-7">
          <mxGeometry relative="1" as="geometry" />
        </mxCell>
        <mxCell id="22_Gp_ISMEU15hHWN27D-30" value="gTaken+=1" style="rounded=0;whiteSpace=wrap;html=1;" vertex="1" parent="1">
          <mxGeometry x="530" y="412.5" width="100" height="45" as="geometry" />
        </mxCell>
        <mxCell id="22_Gp_ISMEU15hHWN27D-41" style="edgeStyle=orthogonalEdgeStyle;rounded=0;orthogonalLoop=1;jettySize=auto;html=1;exitX=0;exitY=0.5;exitDx=0;exitDy=0;entryX=1;entryY=0.5;entryDx=0;entryDy=0;" edge="1" parent="1" source="22_Gp_ISMEU15hHWN27D-35" target="22_Gp_ISMEU15hHWN27D-30">
          <mxGeometry relative="1" as="geometry" />
        </mxCell>
        <mxCell id="22_Gp_ISMEU15hHWN27D-35" value="" style="ellipse;whiteSpace=wrap;html=1;aspect=fixed;" vertex="1" parent="1">
          <mxGeometry x="710" y="405" width="60" height="60" as="geometry" />
        </mxCell>
        <mxCell id="22_Gp_ISMEU15hHWN27D-44" value="T" style="text;html=1;strokeColor=none;fillColor=none;align=center;verticalAlign=middle;whiteSpace=wrap;rounded=0;" vertex="1" parent="1">
          <mxGeometry x="370" y="460" width="40" height="20" as="geometry" />
        </mxCell>
        <mxCell id="22_Gp_ISMEU15hHWN27D-50" value="print(&#39;Correct&amp;nbsp; guess!&#39;)" style="rounded=0;whiteSpace=wrap;html=1;" vertex="1" parent="1">
          <mxGeometry x="312.5" y="810" width="120" height="60" as="geometry" />
        </mxCell>
        <mxCell id="22_Gp_ISMEU15hHWN27D-51" value="" style="edgeStyle=orthogonalEdgeStyle;rounded=0;orthogonalLoop=1;jettySize=auto;html=1;exitX=0.5;exitY=1;exitDx=0;exitDy=0;entryX=0.5;entryY=0;entryDx=0;entryDy=0;endArrow=none;" edge="1" parent="1" source="22_Gp_ISMEU15hHWN27D-14" target="22_Gp_ISMEU15hHWN27D-50">
          <mxGeometry relative="1" as="geometry">
            <mxPoint x="372.5000000000002" y="750" as="sourcePoint" />
            <mxPoint x="372.5000000000002" y="890" as="targetPoint" />
          </mxGeometry>
        </mxCell>
      </root>
    </mxGraphModel>
  </diagram>
</mxfile>
